<svg width="37" height="37" viewBox="0 0 37 37" fill="none" xmlns="http://www.w3.org/2000/svg">
<path d="M0.878662 15.0343L4.34438 33.7783C4.67316 35.6284 6.27288 36.982 8.15176 37H28.8483C30.7273 36.982 32.3269 35.6284 32.6557 33.7783L36.1214 15.0343H0.878662ZM12.1544 23.4302C12.1544 23.9693 11.7174 24.4064 11.1782 24.4064C10.639 24.4064 10.2019 23.9693 10.2019 23.4302V20.5014C10.2019 19.9622 10.639 19.5251 11.1782 19.5251C11.7174 19.5251 12.1544 19.9622 12.1544 20.5014V23.4302ZM26.7983 23.4302C26.7983 23.9693 26.3612 24.4064 25.822 24.4064C25.2828 24.4064 24.8458 23.9693 24.8458 23.4302V20.5014C24.8458 19.9622 25.2828 19.5251 25.822 19.5251C26.3612 19.5251 26.7983 19.9622 26.7983 20.5014V23.4302Z" fill="url(#paint0_linear)"/>
<path d="M12.1544 8.29813C12.1544 4.79355 14.9955 1.95251 18.5 1.95251C22.0046 1.95251 24.8456 4.79355 24.8456 8.29813V14.058H26.7982V8.29813C26.7983 3.71517 23.083 0 18.5 0C13.9171 0 10.2019 3.71517 10.2019 8.29813V14.058H12.1544V8.29813Z" fill="url(#paint1_linear)"/>
<defs>
<linearGradient id="paint0_linear" x1="18.5" y1="2.20282e-08" x2="19" y2="29" gradientUnits="userSpaceOnUse">
<stop stop-color="#A3A3A3"/>
<stop offset="1" stop-color="#4D4C4C"/>
</linearGradient>
<linearGradient id="paint1_linear" x1="18.5" y1="2.20282e-08" x2="19" y2="29" gradientUnits="userSpaceOnUse">
<stop stop-color="#A3A3A3"/>
<stop offset="1" stop-color="#4D4C4C"/>
</linearGradient>
</defs>
</svg>
