<svg xmlns="http://www.w3.org/2000/svg" xmlns:xlink="http://www.w3.org/1999/xlink" version="1.1" id="Capa_1" x="0px" y="0px" viewBox="0 0 512 512" style="enable-background:new 0 0 512 512;" xml:space="preserve">
<g>
	<g>
		<path d="M373.333,341.325c-12.654,0-24.4,3.956-34.854,10.333l-40.764-134.528c0.477-1.221,0.952-2.461,0.952-3.811V10.641    c0-5.292-3.875-9.782-9.104-10.553c-5.104-0.635-10.229,2.406-11.771,7.459L256,79.465L234.208,7.547    c-1.521-5.063-6.583-8.115-11.771-7.459c-5.229,0.771-9.104,5.261-9.104,10.553v202.677c0,1.343,0.478,2.576,0.953,3.792    l-40.766,134.547c-10.454-6.377-22.201-10.333-34.854-10.333C97.5,341.325,64,379.608,64,426.662S97.5,512,138.667,512    c37.049,0,67.652-31.091,73.451-71.596l43.885-164.271l43.88,164.271C305.681,480.909,336.284,512,373.333,512    C414.5,512,448,473.717,448,426.662S414.5,341.325,373.333,341.325z M277.333,82.646v67.24l-10.188-33.617L277.333,82.646z     M138.667,490.667c-29.417,0-53.333-28.708-53.333-64s23.917-64,53.333-64c29.417,0,53.333,28.708,53.333,64    S168.083,490.667,138.667,490.667z M204.398,387.055c-3.712-8.006-8.286-15.375-13.94-21.622l1.083,0.328l40.647-134.15    l11.536,7.689L204.398,387.055z M266.313,231.927c-0.667-2.51-2.229-4.698-4.396-6.135l-27.25-18.167V82.646l85.792,283.115    l1.083-0.328c-5.654,6.247-10.228,13.616-13.94,21.622L266.313,231.927z M373.333,490.667c-29.417,0-53.333-28.708-53.333-64    s23.917-64,53.333-64c29.417,0,53.333,28.708,53.333,64S402.75,490.667,373.333,490.667z" fill="#fff"/>
	</g>
</g>
<g>
</g>
<g>
</g>
<g>
</g>
<g>
</g>
<g>
</g>
<g>
</g>
<g>
</g>
<g>
</g>
<g>
</g>
<g>
</g>
<g>
</g>
<g>
</g>
<g>
</g>
<g>
</g>
<g>
</g>
</svg>